<mxfile host="Electron" modified="2023-07-05T00:54:58.083Z" agent="Mozilla/5.0 (Windows NT 10.0; Win64; x64) AppleWebKit/537.36 (KHTML, like Gecko) draw.io/21.5.1 Chrome/112.0.5615.204 Electron/24.6.0 Safari/537.36" etag="y4fn6zUdQ8wFF9ZX-WoI" version="21.5.1" type="device">
  <diagram name="Page-1" id="oiwFZxT_kR_tD_Lv6vl3">
    <mxGraphModel dx="978" dy="1671" grid="1" gridSize="10" guides="1" tooltips="1" connect="1" arrows="1" fold="1" page="1" pageScale="1" pageWidth="850" pageHeight="1100" math="0" shadow="0">
      <root>
        <mxCell id="0" />
        <mxCell id="1" parent="0" />
        <mxCell id="oyS0qSdWrs01dl2GKNHj-151" style="edgeStyle=none;curved=1;rounded=0;orthogonalLoop=1;jettySize=auto;html=1;fontSize=12;startSize=8;endSize=8;" parent="1" source="oyS0qSdWrs01dl2GKNHj-120" edge="1">
          <mxGeometry relative="1" as="geometry">
            <mxPoint x="974.9999999999998" y="540" as="targetPoint" />
          </mxGeometry>
        </mxCell>
        <mxCell id="oyS0qSdWrs01dl2GKNHj-138" style="edgeStyle=none;curved=1;rounded=0;orthogonalLoop=1;jettySize=auto;html=1;fontSize=12;startSize=8;endSize=8;" parent="1" source="oyS0qSdWrs01dl2GKNHj-120" edge="1">
          <mxGeometry relative="1" as="geometry">
            <mxPoint x="1060" y="445" as="targetPoint" />
          </mxGeometry>
        </mxCell>
        <mxCell id="oyS0qSdWrs01dl2GKNHj-137" style="edgeStyle=none;curved=1;rounded=0;orthogonalLoop=1;jettySize=auto;html=1;fontSize=12;startSize=8;endSize=8;" parent="1" source="oyS0qSdWrs01dl2GKNHj-110" edge="1">
          <mxGeometry relative="1" as="geometry">
            <mxPoint x="1220" y="242.50000000000023" as="targetPoint" />
          </mxGeometry>
        </mxCell>
        <mxCell id="oyS0qSdWrs01dl2GKNHj-130" style="edgeStyle=none;curved=1;rounded=0;orthogonalLoop=1;jettySize=auto;html=1;fontSize=12;startSize=8;endSize=8;" parent="1" source="oyS0qSdWrs01dl2GKNHj-61" edge="1">
          <mxGeometry relative="1" as="geometry">
            <mxPoint x="1009.9999999999998" y="314.9999999999999" as="targetPoint" />
          </mxGeometry>
        </mxCell>
        <mxCell id="oyS0qSdWrs01dl2GKNHj-131" style="edgeStyle=none;curved=1;rounded=0;orthogonalLoop=1;jettySize=auto;html=1;fontSize=12;startSize=8;endSize=8;" parent="1" source="oyS0qSdWrs01dl2GKNHj-61" edge="1">
          <mxGeometry relative="1" as="geometry">
            <mxPoint x="1029.9999999999998" y="314.9999999999999" as="targetPoint" />
          </mxGeometry>
        </mxCell>
        <mxCell id="oyS0qSdWrs01dl2GKNHj-136" style="edgeStyle=none;curved=1;rounded=0;orthogonalLoop=1;jettySize=auto;html=1;fontSize=12;startSize=8;endSize=8;" parent="1" source="oyS0qSdWrs01dl2GKNHj-61" edge="1">
          <mxGeometry relative="1" as="geometry">
            <mxPoint x="864.9999999999998" y="400" as="targetPoint" />
          </mxGeometry>
        </mxCell>
        <mxCell id="oyS0qSdWrs01dl2GKNHj-40" style="edgeStyle=orthogonalEdgeStyle;rounded=0;orthogonalLoop=1;jettySize=auto;html=1;entryX=1;entryY=0.5;entryDx=0;entryDy=0;fontSize=12;startSize=8;endSize=8;endArrow=none;endFill=0;exitX=0.5;exitY=0;exitDx=0;exitDy=0;" parent="1" source="oyS0qSdWrs01dl2GKNHj-72" target="oyS0qSdWrs01dl2GKNHj-37" edge="1">
          <mxGeometry relative="1" as="geometry">
            <mxPoint x="1065" y="119.99999999999989" as="sourcePoint" />
            <Array as="points">
              <mxPoint x="1065" y="88" />
              <mxPoint x="1005" y="88" />
            </Array>
          </mxGeometry>
        </mxCell>
        <mxCell id="oyS0qSdWrs01dl2GKNHj-50" style="edgeStyle=orthogonalEdgeStyle;rounded=0;orthogonalLoop=1;jettySize=auto;html=1;entryX=0;entryY=0.5;entryDx=0;entryDy=0;fontSize=12;startSize=8;endSize=8;exitX=1;exitY=0.5;exitDx=0;exitDy=0;endArrow=none;endFill=0;" parent="1" source="oyS0qSdWrs01dl2GKNHj-77" target="oyS0qSdWrs01dl2GKNHj-31" edge="1">
          <mxGeometry relative="1" as="geometry">
            <mxPoint x="647.4999999999998" y="45" as="sourcePoint" />
            <Array as="points">
              <mxPoint x="730" y="43" />
              <mxPoint x="730" y="155" />
            </Array>
          </mxGeometry>
        </mxCell>
        <mxCell id="oyS0qSdWrs01dl2GKNHj-18" style="edgeStyle=orthogonalEdgeStyle;rounded=0;orthogonalLoop=1;jettySize=auto;html=1;entryX=0;entryY=0.5;entryDx=0;entryDy=0;fontSize=12;startSize=8;endSize=8;exitX=0.5;exitY=0;exitDx=0;exitDy=0;endArrow=none;endFill=0;" parent="1" source="oyS0qSdWrs01dl2GKNHj-28" target="oyS0qSdWrs01dl2GKNHj-77" edge="1">
          <mxGeometry relative="1" as="geometry">
            <mxPoint x="260" y="200" as="sourcePoint" />
            <mxPoint x="585.000000000002" y="45" as="targetPoint" />
          </mxGeometry>
        </mxCell>
        <mxCell id="oyS0qSdWrs01dl2GKNHj-27" value="&lt;font style=&quot;font-size: 11px;&quot;&gt;ClockTypeInput == manual&lt;/font&gt;" style="edgeLabel;html=1;align=center;verticalAlign=middle;resizable=0;points=[];fontSize=16;labelBorderColor=none;fontFamily=Courier New;fontStyle=1" parent="oyS0qSdWrs01dl2GKNHj-18" vertex="1" connectable="0">
          <mxGeometry x="0.1998" y="2" relative="1" as="geometry">
            <mxPoint x="52" y="2" as="offset" />
          </mxGeometry>
        </mxCell>
        <mxCell id="oyS0qSdWrs01dl2GKNHj-21" style="edgeStyle=orthogonalEdgeStyle;rounded=0;orthogonalLoop=1;jettySize=auto;html=1;entryX=0;entryY=0.25;entryDx=0;entryDy=0;fontSize=12;startSize=8;endSize=8;exitX=1;exitY=0.5;exitDx=0;exitDy=0;endArrow=none;endFill=0;" parent="1" source="oyS0qSdWrs01dl2GKNHj-28" edge="1">
          <mxGeometry relative="1" as="geometry">
            <mxPoint x="290" y="260" as="sourcePoint" />
            <mxPoint x="529.9999999999998" y="252.4999999999999" as="targetPoint" />
          </mxGeometry>
        </mxCell>
        <mxCell id="oyS0qSdWrs01dl2GKNHj-26" value="&lt;font style=&quot;font-size: 11px;&quot;&gt;ClockTypeInput == auto&lt;/font&gt;" style="edgeLabel;html=1;align=center;verticalAlign=middle;resizable=0;points=[];fontSize=16;labelBorderColor=none;spacingLeft=2;spacingRight=2;spacing=0;labelBackgroundColor=default;fontFamily=Courier New;fontStyle=1" parent="oyS0qSdWrs01dl2GKNHj-21" vertex="1" connectable="0">
          <mxGeometry x="-0.3492" y="1" relative="1" as="geometry">
            <mxPoint x="40" y="1" as="offset" />
          </mxGeometry>
        </mxCell>
        <mxCell id="oyS0qSdWrs01dl2GKNHj-187" style="edgeStyle=none;curved=1;rounded=0;orthogonalLoop=1;jettySize=auto;html=1;fontSize=12;startSize=8;endSize=8;" parent="1" source="oyS0qSdWrs01dl2GKNHj-28" edge="1">
          <mxGeometry relative="1" as="geometry">
            <mxPoint x="255" y="100.00000000000023" as="targetPoint" />
          </mxGeometry>
        </mxCell>
        <mxCell id="oyS0qSdWrs01dl2GKNHj-188" style="edgeStyle=none;curved=1;rounded=0;orthogonalLoop=1;jettySize=auto;html=1;fontSize=12;startSize=8;endSize=8;" parent="1" source="oyS0qSdWrs01dl2GKNHj-28" edge="1">
          <mxGeometry relative="1" as="geometry">
            <mxPoint x="255" y="120.00000000000023" as="targetPoint" />
          </mxGeometry>
        </mxCell>
        <mxCell id="oyS0qSdWrs01dl2GKNHj-28" value="" style="rhombus;whiteSpace=wrap;html=1;fontSize=16;" parent="1" vertex="1">
          <mxGeometry x="240" y="237.5" width="30" height="30" as="geometry" />
        </mxCell>
        <mxCell id="oyS0qSdWrs01dl2GKNHj-62" style="edgeStyle=orthogonalEdgeStyle;rounded=0;orthogonalLoop=1;jettySize=auto;html=1;entryX=0.5;entryY=0;entryDx=0;entryDy=0;fontSize=12;startSize=8;endSize=8;endArrow=none;endFill=0;" parent="1" source="oyS0qSdWrs01dl2GKNHj-31" target="oyS0qSdWrs01dl2GKNHj-61" edge="1">
          <mxGeometry relative="1" as="geometry">
            <mxPoint x="864.9999999999998" y="222.4999999999999" as="targetPoint" />
          </mxGeometry>
        </mxCell>
        <mxCell id="oyS0qSdWrs01dl2GKNHj-126" style="edgeStyle=none;curved=1;rounded=0;orthogonalLoop=1;jettySize=auto;html=1;fontSize=12;startSize=8;endSize=8;" parent="1" source="oyS0qSdWrs01dl2GKNHj-31" edge="1">
          <mxGeometry relative="1" as="geometry">
            <mxPoint x="864.9999999999998" y="219.9999999999999" as="targetPoint" />
          </mxGeometry>
        </mxCell>
        <mxCell id="oyS0qSdWrs01dl2GKNHj-127" style="edgeStyle=none;curved=1;rounded=0;orthogonalLoop=1;jettySize=auto;html=1;fontSize=12;startSize=8;endSize=8;" parent="1" source="oyS0qSdWrs01dl2GKNHj-31" edge="1">
          <mxGeometry relative="1" as="geometry">
            <mxPoint x="864.9999999999998" y="199.9999999999999" as="targetPoint" />
          </mxGeometry>
        </mxCell>
        <mxCell id="oyS0qSdWrs01dl2GKNHj-31" value="&lt;font style=&quot;font-size: 11px;&quot;&gt;updateClock()&lt;/font&gt;" style="rounded=1;whiteSpace=wrap;html=1;fontSize=16;" parent="1" vertex="1">
          <mxGeometry x="810" y="145" width="110" height="20" as="geometry" />
        </mxCell>
        <mxCell id="oyS0qSdWrs01dl2GKNHj-44" style="edgeStyle=orthogonalEdgeStyle;rounded=0;orthogonalLoop=1;jettySize=auto;html=1;entryX=0;entryY=0.5;entryDx=0;entryDy=0;fontSize=12;startSize=8;endSize=8;endArrow=none;endFill=0;exitX=0.5;exitY=0;exitDx=0;exitDy=0;" parent="1" source="oyS0qSdWrs01dl2GKNHj-37" edge="1">
          <mxGeometry relative="1" as="geometry">
            <mxPoint x="965.0000000000002" y="48.490000000000336" as="sourcePoint" />
            <mxPoint x="1230" y="18.49" as="targetPoint" />
            <Array as="points">
              <mxPoint x="965" y="19" />
            </Array>
          </mxGeometry>
        </mxCell>
        <mxCell id="oyS0qSdWrs01dl2GKNHj-45" value="&lt;font style=&quot;font-size: 11px;&quot;&gt;escapeApp == true&lt;/font&gt;" style="edgeLabel;html=1;align=center;verticalAlign=middle;resizable=0;points=[];fontSize=11;labelBorderColor=none;fontFamily=Courier New;fontStyle=1" parent="oyS0qSdWrs01dl2GKNHj-44" vertex="1" connectable="0">
          <mxGeometry x="0.1046" y="1" relative="1" as="geometry">
            <mxPoint as="offset" />
          </mxGeometry>
        </mxCell>
        <mxCell id="oyS0qSdWrs01dl2GKNHj-47" style="edgeStyle=orthogonalEdgeStyle;rounded=0;orthogonalLoop=1;jettySize=auto;html=1;fontSize=12;startSize=8;endSize=8;endArrow=none;endFill=0;entryX=0.5;entryY=0;entryDx=0;entryDy=0;" parent="1" source="oyS0qSdWrs01dl2GKNHj-37" target="oyS0qSdWrs01dl2GKNHj-70" edge="1">
          <mxGeometry relative="1" as="geometry">
            <mxPoint x="865" y="120" as="targetPoint" />
          </mxGeometry>
        </mxCell>
        <mxCell id="oyS0qSdWrs01dl2GKNHj-48" value="&lt;font style=&quot;font-size: 16px;&quot;&gt;else&lt;/font&gt;" style="edgeLabel;html=1;align=center;verticalAlign=middle;resizable=0;points=[];fontSize=16;labelBorderColor=none;fontFamily=Courier New;fontStyle=1" parent="oyS0qSdWrs01dl2GKNHj-47" vertex="1" connectable="0">
          <mxGeometry x="-0.2687" relative="1" as="geometry">
            <mxPoint x="-1" y="-1" as="offset" />
          </mxGeometry>
        </mxCell>
        <mxCell id="oyS0qSdWrs01dl2GKNHj-132" style="edgeStyle=none;curved=1;rounded=0;orthogonalLoop=1;jettySize=auto;html=1;fontSize=12;startSize=8;endSize=8;" parent="1" source="oyS0qSdWrs01dl2GKNHj-37" edge="1">
          <mxGeometry relative="1" as="geometry">
            <mxPoint x="964.9999999999998" y="50" as="targetPoint" />
          </mxGeometry>
        </mxCell>
        <mxCell id="oyS0qSdWrs01dl2GKNHj-133" style="edgeStyle=none;curved=1;rounded=0;orthogonalLoop=1;jettySize=auto;html=1;fontSize=12;startSize=8;endSize=8;" parent="1" source="oyS0qSdWrs01dl2GKNHj-37" edge="1">
          <mxGeometry relative="1" as="geometry">
            <mxPoint x="964.9999999999998" y="30.000000000000227" as="targetPoint" />
          </mxGeometry>
        </mxCell>
        <mxCell id="oyS0qSdWrs01dl2GKNHj-37" value="" style="rhombus;whiteSpace=wrap;html=1;fontSize=16;" parent="1" vertex="1">
          <mxGeometry x="950" y="72.5" width="30" height="30" as="geometry" />
        </mxCell>
        <mxCell id="oyS0qSdWrs01dl2GKNHj-176" style="edgeStyle=none;curved=1;rounded=0;orthogonalLoop=1;jettySize=auto;html=1;entryX=0.5;entryY=0;entryDx=0;entryDy=0;fontSize=12;startSize=8;endSize=8;endArrow=none;endFill=0;" parent="1" source="oyS0qSdWrs01dl2GKNHj-41" target="oyS0qSdWrs01dl2GKNHj-175" edge="1">
          <mxGeometry relative="1" as="geometry" />
        </mxCell>
        <mxCell id="oyS0qSdWrs01dl2GKNHj-189" style="edgeStyle=none;curved=1;rounded=0;orthogonalLoop=1;jettySize=auto;html=1;fontSize=12;startSize=8;endSize=8;" parent="1" source="oyS0qSdWrs01dl2GKNHj-41" edge="1">
          <mxGeometry relative="1" as="geometry">
            <mxPoint x="72.5" y="80.00000000000023" as="targetPoint" />
          </mxGeometry>
        </mxCell>
        <mxCell id="oyS0qSdWrs01dl2GKNHj-190" style="edgeStyle=none;curved=1;rounded=0;orthogonalLoop=1;jettySize=auto;html=1;fontSize=12;startSize=8;endSize=8;" parent="1" source="oyS0qSdWrs01dl2GKNHj-41" edge="1">
          <mxGeometry relative="1" as="geometry">
            <mxPoint x="72.5" y="100.00000000000023" as="targetPoint" />
          </mxGeometry>
        </mxCell>
        <mxCell id="oyS0qSdWrs01dl2GKNHj-41" value="&lt;font style=&quot;font-size: 8px;&quot;&gt;Start&lt;/font&gt;" style="triangle;whiteSpace=wrap;html=1;fontSize=16;align=center;direction=south;verticalAlign=top;" parent="1" vertex="1">
          <mxGeometry x="47.5" width="50" height="40" as="geometry" />
        </mxCell>
        <mxCell id="oyS0qSdWrs01dl2GKNHj-43" value="&lt;font style=&quot;font-size: 10px;&quot;&gt;End&lt;/font&gt;" style="triangle;whiteSpace=wrap;html=1;fontSize=16;align=left;" parent="1" vertex="1">
          <mxGeometry x="1230" y="-10" width="40" height="50" as="geometry" />
        </mxCell>
        <mxCell id="oyS0qSdWrs01dl2GKNHj-49" style="edgeStyle=orthogonalEdgeStyle;rounded=0;orthogonalLoop=1;jettySize=auto;html=1;entryX=0;entryY=0.5;entryDx=0;entryDy=0;fontSize=12;startSize=8;endSize=8;exitX=1;exitY=0.5;exitDx=0;exitDy=0;endArrow=none;endFill=0;" parent="1" source="oyS0qSdWrs01dl2GKNHj-78" target="oyS0qSdWrs01dl2GKNHj-31" edge="1">
          <mxGeometry relative="1" as="geometry">
            <mxPoint x="659.9999999999998" y="252.4999999999999" as="sourcePoint" />
            <Array as="points">
              <mxPoint x="730" y="253" />
              <mxPoint x="730" y="155" />
            </Array>
          </mxGeometry>
        </mxCell>
        <mxCell id="oyS0qSdWrs01dl2GKNHj-73" style="edgeStyle=none;curved=1;rounded=0;orthogonalLoop=1;jettySize=auto;html=1;fontSize=12;startSize=8;endSize=8;endArrow=none;endFill=0;exitX=0.5;exitY=1;exitDx=0;exitDy=0;" parent="1" source="oyS0qSdWrs01dl2GKNHj-120" target="oyS0qSdWrs01dl2GKNHj-69" edge="1">
          <mxGeometry relative="1" as="geometry">
            <mxPoint x="975" y="480" as="sourcePoint" />
          </mxGeometry>
        </mxCell>
        <mxCell id="oyS0qSdWrs01dl2GKNHj-76" value="&lt;font face=&quot;Courier New&quot; style=&quot;font-size: 8px;&quot;&gt;alarmMet == true &amp;amp;&amp;amp; alarmDismissed == false&lt;/font&gt;" style="edgeLabel;html=1;align=center;verticalAlign=middle;resizable=0;points=[];fontSize=16;fontStyle=1" parent="oyS0qSdWrs01dl2GKNHj-73" vertex="1" connectable="0">
          <mxGeometry x="-0.1836" relative="1" as="geometry">
            <mxPoint x="-45" y="1" as="offset" />
          </mxGeometry>
        </mxCell>
        <mxCell id="oyS0qSdWrs01dl2GKNHj-157" style="edgeStyle=none;curved=1;rounded=0;orthogonalLoop=1;jettySize=auto;html=1;fontSize=12;startSize=8;endSize=8;endArrow=none;endFill=0;" parent="1" source="oyS0qSdWrs01dl2GKNHj-60" target="oyS0qSdWrs01dl2GKNHj-140" edge="1">
          <mxGeometry relative="1" as="geometry" />
        </mxCell>
        <mxCell id="oyS0qSdWrs01dl2GKNHj-60" value="&lt;font style=&quot;font-size: 11px;&quot;&gt;checkAlarm()&lt;/font&gt;" style="rounded=1;whiteSpace=wrap;html=1;fontSize=16;" parent="1" vertex="1">
          <mxGeometry x="810" y="410" width="110" height="20" as="geometry" />
        </mxCell>
        <mxCell id="oyS0qSdWrs01dl2GKNHj-63" style="edgeStyle=orthogonalEdgeStyle;rounded=0;orthogonalLoop=1;jettySize=auto;html=1;fontSize=12;startSize=8;endSize=8;endArrow=none;endFill=0;entryX=0.5;entryY=1;entryDx=0;entryDy=0;" parent="1" source="oyS0qSdWrs01dl2GKNHj-61" target="oyS0qSdWrs01dl2GKNHj-110" edge="1">
          <mxGeometry relative="1" as="geometry">
            <mxPoint x="1060" y="270" as="targetPoint" />
            <Array as="points">
              <mxPoint x="1065" y="315" />
            </Array>
          </mxGeometry>
        </mxCell>
        <mxCell id="oyS0qSdWrs01dl2GKNHj-68" value="&lt;font style=&quot;font-size: 16px;&quot;&gt;else&lt;/font&gt;" style="edgeLabel;html=1;align=center;verticalAlign=middle;resizable=0;points=[];fontSize=16;fontFamily=Courier New;fontStyle=1" parent="oyS0qSdWrs01dl2GKNHj-63" vertex="1" connectable="0">
          <mxGeometry x="-0.176" y="2" relative="1" as="geometry">
            <mxPoint x="-53" y="2" as="offset" />
          </mxGeometry>
        </mxCell>
        <mxCell id="oyS0qSdWrs01dl2GKNHj-64" style="edgeStyle=none;curved=1;rounded=0;orthogonalLoop=1;jettySize=auto;html=1;entryX=0.5;entryY=0;entryDx=0;entryDy=0;fontSize=12;startSize=8;endSize=8;endArrow=none;endFill=0;" parent="1" source="oyS0qSdWrs01dl2GKNHj-61" target="oyS0qSdWrs01dl2GKNHj-60" edge="1">
          <mxGeometry relative="1" as="geometry" />
        </mxCell>
        <mxCell id="oyS0qSdWrs01dl2GKNHj-66" value="&lt;font face=&quot;Courier New&quot; style=&quot;font-size: 8px;&quot;&gt;alarmSet == true || timerSet == true&lt;/font&gt;" style="edgeLabel;html=1;align=center;verticalAlign=middle;resizable=0;points=[];fontSize=16;fontStyle=1" parent="oyS0qSdWrs01dl2GKNHj-64" vertex="1" connectable="0">
          <mxGeometry x="-0.0828" y="-1" relative="1" as="geometry">
            <mxPoint x="1" y="-7" as="offset" />
          </mxGeometry>
        </mxCell>
        <mxCell id="oyS0qSdWrs01dl2GKNHj-159" style="edgeStyle=orthogonalEdgeStyle;rounded=0;orthogonalLoop=1;jettySize=auto;html=1;fontSize=12;startSize=8;endSize=8;" parent="1" source="oyS0qSdWrs01dl2GKNHj-61" edge="1">
          <mxGeometry relative="1" as="geometry">
            <mxPoint x="1065" y="290" as="targetPoint" />
          </mxGeometry>
        </mxCell>
        <mxCell id="oyS0qSdWrs01dl2GKNHj-160" style="edgeStyle=orthogonalEdgeStyle;rounded=0;orthogonalLoop=1;jettySize=auto;html=1;fontSize=12;startSize=8;endSize=8;" parent="1" source="oyS0qSdWrs01dl2GKNHj-61" edge="1">
          <mxGeometry relative="1" as="geometry">
            <mxPoint x="1065" y="270" as="targetPoint" />
          </mxGeometry>
        </mxCell>
        <mxCell id="oyS0qSdWrs01dl2GKNHj-61" value="" style="rhombus;whiteSpace=wrap;html=1;fontSize=16;" parent="1" vertex="1">
          <mxGeometry x="850" y="300" width="30" height="30" as="geometry" />
        </mxCell>
        <mxCell id="oyS0qSdWrs01dl2GKNHj-75" style="edgeStyle=orthogonalEdgeStyle;rounded=0;orthogonalLoop=1;jettySize=auto;html=1;fontSize=12;startSize=8;endSize=8;endArrow=none;endFill=0;" parent="1" source="oyS0qSdWrs01dl2GKNHj-69" edge="1">
          <mxGeometry relative="1" as="geometry">
            <mxPoint x="1065" y="290" as="targetPoint" />
          </mxGeometry>
        </mxCell>
        <mxCell id="oyS0qSdWrs01dl2GKNHj-149" style="edgeStyle=none;curved=1;rounded=0;orthogonalLoop=1;jettySize=auto;html=1;fontSize=12;startSize=8;endSize=8;" parent="1" source="oyS0qSdWrs01dl2GKNHj-69" edge="1">
          <mxGeometry relative="1" as="geometry">
            <mxPoint x="1049.9999999999998" y="570" as="targetPoint" />
          </mxGeometry>
        </mxCell>
        <mxCell id="oyS0qSdWrs01dl2GKNHj-150" style="edgeStyle=none;curved=1;rounded=0;orthogonalLoop=1;jettySize=auto;html=1;fontSize=12;startSize=8;endSize=8;" parent="1" source="oyS0qSdWrs01dl2GKNHj-69" edge="1">
          <mxGeometry relative="1" as="geometry">
            <mxPoint x="1070" y="570" as="targetPoint" />
          </mxGeometry>
        </mxCell>
        <mxCell id="oyS0qSdWrs01dl2GKNHj-69" value="&lt;font style=&quot;font-size: 11px;&quot;&gt;notifyAlarm()&lt;/font&gt;" style="rounded=1;whiteSpace=wrap;html=1;fontSize=16;" parent="1" vertex="1">
          <mxGeometry x="920" y="560" width="110" height="20" as="geometry" />
        </mxCell>
        <mxCell id="oyS0qSdWrs01dl2GKNHj-71" style="edgeStyle=none;curved=1;rounded=0;orthogonalLoop=1;jettySize=auto;html=1;entryX=0.5;entryY=0;entryDx=0;entryDy=0;fontSize=12;startSize=8;endSize=8;endArrow=none;endFill=0;" parent="1" source="oyS0qSdWrs01dl2GKNHj-70" target="oyS0qSdWrs01dl2GKNHj-31" edge="1">
          <mxGeometry relative="1" as="geometry" />
        </mxCell>
        <mxCell id="oyS0qSdWrs01dl2GKNHj-70" value="&lt;font style=&quot;font-size: 11px;&quot;&gt;receiveInput()&lt;/font&gt;" style="rounded=1;whiteSpace=wrap;html=1;fontSize=16;" parent="1" vertex="1">
          <mxGeometry x="810" y="120" width="110" height="20" as="geometry" />
        </mxCell>
        <mxCell id="oyS0qSdWrs01dl2GKNHj-128" style="edgeStyle=none;curved=1;rounded=0;orthogonalLoop=1;jettySize=auto;html=1;fontSize=12;startSize=8;endSize=8;" parent="1" source="oyS0qSdWrs01dl2GKNHj-72" edge="1">
          <mxGeometry relative="1" as="geometry">
            <mxPoint x="1065" y="109.99999999999989" as="targetPoint" />
          </mxGeometry>
        </mxCell>
        <mxCell id="oyS0qSdWrs01dl2GKNHj-129" style="edgeStyle=none;curved=1;rounded=0;orthogonalLoop=1;jettySize=auto;html=1;fontSize=12;startSize=8;endSize=8;" parent="1" source="oyS0qSdWrs01dl2GKNHj-72" edge="1">
          <mxGeometry relative="1" as="geometry">
            <mxPoint x="1065" y="89.99999999999989" as="targetPoint" />
          </mxGeometry>
        </mxCell>
        <mxCell id="oyS0qSdWrs01dl2GKNHj-72" value="&lt;span style=&quot;font-size: 11px;&quot;&gt;Display()&lt;/span&gt;" style="rounded=1;whiteSpace=wrap;html=1;fontSize=16;" parent="1" vertex="1">
          <mxGeometry x="1010" y="145" width="110" height="20" as="geometry" />
        </mxCell>
        <mxCell id="oyS0qSdWrs01dl2GKNHj-155" style="edgeStyle=none;curved=1;rounded=0;orthogonalLoop=1;jettySize=auto;html=1;fontSize=12;startSize=8;endSize=8;" parent="1" source="oyS0qSdWrs01dl2GKNHj-77" edge="1">
          <mxGeometry relative="1" as="geometry">
            <mxPoint x="689.9999999999998" y="42.50000000000023" as="targetPoint" />
          </mxGeometry>
        </mxCell>
        <mxCell id="oyS0qSdWrs01dl2GKNHj-156" style="edgeStyle=none;curved=1;rounded=0;orthogonalLoop=1;jettySize=auto;html=1;fontSize=12;startSize=8;endSize=8;" parent="1" source="oyS0qSdWrs01dl2GKNHj-77" edge="1">
          <mxGeometry relative="1" as="geometry">
            <mxPoint x="709.9999999999998" y="42.50000000000023" as="targetPoint" />
          </mxGeometry>
        </mxCell>
        <mxCell id="oyS0qSdWrs01dl2GKNHj-77" value="&lt;span style=&quot;font-size: 11px;&quot;&gt;initializeFromFile()&lt;/span&gt;" style="rounded=1;whiteSpace=wrap;html=1;fontSize=16;" parent="1" vertex="1">
          <mxGeometry x="540" y="32.5" width="110" height="20" as="geometry" />
        </mxCell>
        <mxCell id="oyS0qSdWrs01dl2GKNHj-152" style="edgeStyle=none;curved=1;rounded=0;orthogonalLoop=1;jettySize=auto;html=1;fontSize=12;startSize=8;endSize=8;" parent="1" source="oyS0qSdWrs01dl2GKNHj-78" edge="1">
          <mxGeometry relative="1" as="geometry">
            <mxPoint x="689.9999999999998" y="252.50000000000023" as="targetPoint" />
          </mxGeometry>
        </mxCell>
        <mxCell id="oyS0qSdWrs01dl2GKNHj-153" style="edgeStyle=none;curved=1;rounded=0;orthogonalLoop=1;jettySize=auto;html=1;fontSize=12;startSize=8;endSize=8;" parent="1" source="oyS0qSdWrs01dl2GKNHj-78" edge="1">
          <mxGeometry relative="1" as="geometry">
            <mxPoint x="709.9999999999998" y="252.50000000000023" as="targetPoint" />
          </mxGeometry>
        </mxCell>
        <mxCell id="oyS0qSdWrs01dl2GKNHj-78" value="&lt;font style=&quot;font-size: 11px;&quot;&gt;initializeDefault()&lt;/font&gt;" style="rounded=1;whiteSpace=wrap;html=1;fontSize=16;" parent="1" vertex="1">
          <mxGeometry x="530" y="242.5" width="110" height="20" as="geometry" />
        </mxCell>
        <mxCell id="oyS0qSdWrs01dl2GKNHj-79" value="&lt;b&gt;clockData&lt;/b&gt;" style="swimlane;fontStyle=0;childLayout=stackLayout;horizontal=1;startSize=30;horizontalStack=0;resizeParent=1;resizeParentMax=0;resizeLast=0;collapsible=1;marginBottom=0;whiteSpace=wrap;html=1;fontSize=11;" parent="1" vertex="1">
          <mxGeometry x="160" y="420" width="140" height="210" as="geometry" />
        </mxCell>
        <mxCell id="oyS0qSdWrs01dl2GKNHj-80" value="- clockType: String" style="text;strokeColor=none;fillColor=none;align=left;verticalAlign=middle;spacingLeft=4;spacingRight=4;overflow=hidden;points=[[0,0.5],[1,0.5]];portConstraint=eastwest;rotatable=0;whiteSpace=wrap;html=1;fontSize=11;fontStyle=1" parent="oyS0qSdWrs01dl2GKNHj-79" vertex="1">
          <mxGeometry y="30" width="140" height="30" as="geometry" />
        </mxCell>
        <mxCell id="oyS0qSdWrs01dl2GKNHj-81" value="- clockColor: String" style="text;strokeColor=none;fillColor=none;align=left;verticalAlign=middle;spacingLeft=4;spacingRight=4;overflow=hidden;points=[[0,0.5],[1,0.5]];portConstraint=eastwest;rotatable=0;whiteSpace=wrap;html=1;fontSize=11;fontStyle=1" parent="oyS0qSdWrs01dl2GKNHj-79" vertex="1">
          <mxGeometry y="60" width="140" height="30" as="geometry" />
        </mxCell>
        <mxCell id="oyS0qSdWrs01dl2GKNHj-94" value="- displayMS: bool" style="text;strokeColor=none;fillColor=none;align=left;verticalAlign=middle;spacingLeft=4;spacingRight=4;overflow=hidden;points=[[0,0.5],[1,0.5]];portConstraint=eastwest;rotatable=0;whiteSpace=wrap;html=1;fontSize=11;fontStyle=1" parent="oyS0qSdWrs01dl2GKNHj-79" vertex="1">
          <mxGeometry y="90" width="140" height="30" as="geometry" />
        </mxCell>
        <mxCell id="oyS0qSdWrs01dl2GKNHj-82" value="- primaryZone: int" style="text;strokeColor=none;fillColor=none;align=left;verticalAlign=middle;spacingLeft=4;spacingRight=4;overflow=hidden;points=[[0,0.5],[1,0.5]];portConstraint=eastwest;rotatable=0;whiteSpace=wrap;html=1;fontSize=11;fontStyle=1" parent="oyS0qSdWrs01dl2GKNHj-79" vertex="1">
          <mxGeometry y="120" width="140" height="30" as="geometry" />
        </mxCell>
        <mxCell id="oyS0qSdWrs01dl2GKNHj-93" value="- secondaryZone: int" style="text;strokeColor=none;fillColor=none;align=left;verticalAlign=middle;spacingLeft=4;spacingRight=4;overflow=hidden;points=[[0,0.5],[1,0.5]];portConstraint=eastwest;rotatable=0;whiteSpace=wrap;html=1;fontSize=11;fontStyle=1" parent="oyS0qSdWrs01dl2GKNHj-79" vertex="1">
          <mxGeometry y="150" width="140" height="30" as="geometry" />
        </mxCell>
        <mxCell id="oyS0qSdWrs01dl2GKNHj-92" value="- areTwoClocks: bool" style="text;strokeColor=none;fillColor=none;align=left;verticalAlign=middle;spacingLeft=4;spacingRight=4;overflow=hidden;points=[[0,0.5],[1,0.5]];portConstraint=eastwest;rotatable=0;whiteSpace=wrap;html=1;fontSize=11;" parent="oyS0qSdWrs01dl2GKNHj-79" vertex="1">
          <mxGeometry y="180" width="140" height="30" as="geometry" />
        </mxCell>
        <mxCell id="oyS0qSdWrs01dl2GKNHj-113" style="edgeStyle=none;curved=1;rounded=0;orthogonalLoop=1;jettySize=auto;html=1;entryX=0;entryY=0.5;entryDx=0;entryDy=0;fontSize=12;startSize=8;endSize=8;endArrow=none;endFill=0;" parent="1" source="oyS0qSdWrs01dl2GKNHj-110" target="oyS0qSdWrs01dl2GKNHj-111" edge="1">
          <mxGeometry relative="1" as="geometry" />
        </mxCell>
        <mxCell id="oyS0qSdWrs01dl2GKNHj-115" value="&lt;font style=&quot;font-size: 11px;&quot;&gt;displayMS == true&lt;/font&gt;" style="edgeLabel;html=1;align=center;verticalAlign=middle;resizable=0;points=[];fontSize=11;fontFamily=Courier New;fontStyle=1" parent="oyS0qSdWrs01dl2GKNHj-113" vertex="1" connectable="0">
          <mxGeometry x="-0.0257" y="-3" relative="1" as="geometry">
            <mxPoint x="-13" y="-3" as="offset" />
          </mxGeometry>
        </mxCell>
        <mxCell id="oyS0qSdWrs01dl2GKNHj-117" style="edgeStyle=none;curved=1;rounded=0;orthogonalLoop=1;jettySize=auto;html=1;entryX=0.5;entryY=1;entryDx=0;entryDy=0;fontSize=12;startSize=8;endSize=8;endArrow=none;endFill=0;" parent="1" source="oyS0qSdWrs01dl2GKNHj-110" target="oyS0qSdWrs01dl2GKNHj-72" edge="1">
          <mxGeometry relative="1" as="geometry" />
        </mxCell>
        <mxCell id="oyS0qSdWrs01dl2GKNHj-119" value="&lt;font style=&quot;font-size: 16px;&quot;&gt;else&lt;/font&gt;" style="edgeLabel;html=1;align=center;verticalAlign=middle;resizable=0;points=[];fontSize=11;fontFamily=Courier New;fontStyle=1" parent="oyS0qSdWrs01dl2GKNHj-117" vertex="1" connectable="0">
          <mxGeometry x="0.0488" y="-3" relative="1" as="geometry">
            <mxPoint x="-3" as="offset" />
          </mxGeometry>
        </mxCell>
        <mxCell id="oyS0qSdWrs01dl2GKNHj-110" value="" style="rhombus;whiteSpace=wrap;html=1;fontSize=16;" parent="1" vertex="1">
          <mxGeometry x="1050" y="227.5" width="30" height="30" as="geometry" />
        </mxCell>
        <mxCell id="oyS0qSdWrs01dl2GKNHj-118" style="edgeStyle=orthogonalEdgeStyle;rounded=0;orthogonalLoop=1;jettySize=auto;html=1;entryX=1;entryY=0.5;entryDx=0;entryDy=0;fontSize=12;startSize=8;endSize=8;endArrow=none;endFill=0;" parent="1" source="oyS0qSdWrs01dl2GKNHj-111" target="oyS0qSdWrs01dl2GKNHj-72" edge="1">
          <mxGeometry relative="1" as="geometry">
            <Array as="points">
              <mxPoint x="1285" y="155" />
            </Array>
          </mxGeometry>
        </mxCell>
        <mxCell id="oyS0qSdWrs01dl2GKNHj-134" style="edgeStyle=none;curved=1;rounded=0;orthogonalLoop=1;jettySize=auto;html=1;fontSize=12;startSize=8;endSize=8;" parent="1" source="oyS0qSdWrs01dl2GKNHj-111" edge="1">
          <mxGeometry relative="1" as="geometry">
            <mxPoint x="1285" y="170.00000000000023" as="targetPoint" />
          </mxGeometry>
        </mxCell>
        <mxCell id="oyS0qSdWrs01dl2GKNHj-135" style="edgeStyle=none;curved=1;rounded=0;orthogonalLoop=1;jettySize=auto;html=1;fontSize=12;startSize=8;endSize=8;" parent="1" source="oyS0qSdWrs01dl2GKNHj-111" edge="1">
          <mxGeometry relative="1" as="geometry">
            <mxPoint x="1285" y="190.00000000000023" as="targetPoint" />
          </mxGeometry>
        </mxCell>
        <mxCell id="oyS0qSdWrs01dl2GKNHj-111" value="&lt;span style=&quot;font-size: 11px;&quot;&gt;DisplayMS()&lt;/span&gt;" style="rounded=1;whiteSpace=wrap;html=1;fontSize=16;" parent="1" vertex="1">
          <mxGeometry x="1230" y="232.5" width="110" height="20" as="geometry" />
        </mxCell>
        <mxCell id="oyS0qSdWrs01dl2GKNHj-122" style="edgeStyle=orthogonalEdgeStyle;rounded=0;orthogonalLoop=1;jettySize=auto;html=1;entryX=0.5;entryY=1;entryDx=0;entryDy=0;fontSize=12;startSize=8;endSize=8;endArrow=none;endFill=0;" parent="1" source="oyS0qSdWrs01dl2GKNHj-120" target="oyS0qSdWrs01dl2GKNHj-110" edge="1">
          <mxGeometry relative="1" as="geometry">
            <Array as="points">
              <mxPoint x="1065" y="445" />
            </Array>
          </mxGeometry>
        </mxCell>
        <mxCell id="oyS0qSdWrs01dl2GKNHj-123" value="else" style="edgeLabel;html=1;align=center;verticalAlign=middle;resizable=0;points=[];fontSize=16;fontFamily=Courier New;fontStyle=1" parent="oyS0qSdWrs01dl2GKNHj-122" vertex="1" connectable="0">
          <mxGeometry x="-0.7854" relative="1" as="geometry">
            <mxPoint as="offset" />
          </mxGeometry>
        </mxCell>
        <mxCell id="oyS0qSdWrs01dl2GKNHj-120" value="" style="rhombus;whiteSpace=wrap;html=1;fontSize=16;" parent="1" vertex="1">
          <mxGeometry x="960" y="430" width="30" height="30" as="geometry" />
        </mxCell>
        <mxCell id="oyS0qSdWrs01dl2GKNHj-141" style="edgeStyle=orthogonalEdgeStyle;rounded=0;orthogonalLoop=1;jettySize=auto;html=1;entryX=0;entryY=0.5;entryDx=0;entryDy=0;fontSize=12;startSize=8;endSize=8;endArrow=none;endFill=0;" parent="1" source="oyS0qSdWrs01dl2GKNHj-140" target="oyS0qSdWrs01dl2GKNHj-120" edge="1">
          <mxGeometry relative="1" as="geometry" />
        </mxCell>
        <mxCell id="oyS0qSdWrs01dl2GKNHj-140" value="&lt;font style=&quot;font-size: 11px;&quot;&gt;checkTimer()&lt;/font&gt;" style="rounded=1;whiteSpace=wrap;html=1;fontSize=16;" parent="1" vertex="1">
          <mxGeometry x="810" y="435" width="110" height="20" as="geometry" />
        </mxCell>
        <mxCell id="oyS0qSdWrs01dl2GKNHj-161" value="&lt;b&gt;alarmData&lt;/b&gt;" style="swimlane;fontStyle=0;childLayout=stackLayout;horizontal=1;startSize=30;horizontalStack=0;resizeParent=1;resizeParentMax=0;resizeLast=0;collapsible=1;marginBottom=0;whiteSpace=wrap;html=1;fontSize=11;" parent="1" vertex="1">
          <mxGeometry x="340" y="420" width="140" height="240" as="geometry" />
        </mxCell>
        <mxCell id="oyS0qSdWrs01dl2GKNHj-174" value="- alarmSet: bool" style="text;strokeColor=none;fillColor=none;align=left;verticalAlign=middle;spacingLeft=4;spacingRight=4;overflow=hidden;points=[[0,0.5],[1,0.5]];portConstraint=eastwest;rotatable=0;whiteSpace=wrap;html=1;fontSize=11;" parent="oyS0qSdWrs01dl2GKNHj-161" vertex="1">
          <mxGeometry y="30" width="140" height="30" as="geometry" />
        </mxCell>
        <mxCell id="oyS0qSdWrs01dl2GKNHj-98" value="- timerSet: bool" style="text;strokeColor=none;fillColor=none;align=left;verticalAlign=middle;spacingLeft=4;spacingRight=4;overflow=hidden;points=[[0,0.5],[1,0.5]];portConstraint=eastwest;rotatable=0;whiteSpace=wrap;html=1;fontSize=11;" parent="oyS0qSdWrs01dl2GKNHj-161" vertex="1">
          <mxGeometry y="60" width="140" height="30" as="geometry" />
        </mxCell>
        <mxCell id="oyS0qSdWrs01dl2GKNHj-91" value="- alarmThresh: int" style="text;strokeColor=none;fillColor=none;align=left;verticalAlign=middle;spacingLeft=4;spacingRight=4;overflow=hidden;points=[[0,0.5],[1,0.5]];portConstraint=eastwest;rotatable=0;whiteSpace=wrap;html=1;fontSize=11;" parent="oyS0qSdWrs01dl2GKNHj-161" vertex="1">
          <mxGeometry y="90" width="140" height="30" as="geometry" />
        </mxCell>
        <mxCell id="oyS0qSdWrs01dl2GKNHj-100" value="- alarmMet: bool" style="text;strokeColor=none;fillColor=none;align=left;verticalAlign=middle;spacingLeft=4;spacingRight=4;overflow=hidden;points=[[0,0.5],[1,0.5]];portConstraint=eastwest;rotatable=0;whiteSpace=wrap;html=1;fontSize=11;" parent="oyS0qSdWrs01dl2GKNHj-161" vertex="1">
          <mxGeometry y="120" width="140" height="30" as="geometry" />
        </mxCell>
        <mxCell id="oyS0qSdWrs01dl2GKNHj-99" value="- alarmDismissed: bool" style="text;strokeColor=none;fillColor=none;align=left;verticalAlign=middle;spacingLeft=4;spacingRight=4;overflow=hidden;points=[[0,0.5],[1,0.5]];portConstraint=eastwest;rotatable=0;whiteSpace=wrap;html=1;fontSize=11;" parent="oyS0qSdWrs01dl2GKNHj-161" vertex="1">
          <mxGeometry y="150" width="140" height="30" as="geometry" />
        </mxCell>
        <mxCell id="oyS0qSdWrs01dl2GKNHj-90" value="- timerStart: int" style="text;strokeColor=none;fillColor=none;align=left;verticalAlign=middle;spacingLeft=4;spacingRight=4;overflow=hidden;points=[[0,0.5],[1,0.5]];portConstraint=eastwest;rotatable=0;whiteSpace=wrap;html=1;fontSize=11;" parent="oyS0qSdWrs01dl2GKNHj-161" vertex="1">
          <mxGeometry y="180" width="140" height="30" as="geometry" />
        </mxCell>
        <mxCell id="oyS0qSdWrs01dl2GKNHj-84" value="- timerDuration: int" style="text;strokeColor=none;fillColor=none;align=left;verticalAlign=middle;spacingLeft=4;spacingRight=4;overflow=hidden;points=[[0,0.5],[1,0.5]];portConstraint=eastwest;rotatable=0;whiteSpace=wrap;html=1;fontSize=11;" parent="oyS0qSdWrs01dl2GKNHj-161" vertex="1">
          <mxGeometry y="210" width="140" height="30" as="geometry" />
        </mxCell>
        <mxCell id="oyS0qSdWrs01dl2GKNHj-181" style="edgeStyle=none;curved=1;rounded=0;orthogonalLoop=1;jettySize=auto;html=1;fontSize=12;startSize=8;endSize=8;endArrow=none;endFill=0;" parent="1" source="oyS0qSdWrs01dl2GKNHj-175" target="oyS0qSdWrs01dl2GKNHj-180" edge="1">
          <mxGeometry relative="1" as="geometry" />
        </mxCell>
        <mxCell id="oyS0qSdWrs01dl2GKNHj-175" value="&lt;span style=&quot;font-size: 11px;&quot;&gt;DetermineTimeZone()&lt;/span&gt;" style="rounded=1;whiteSpace=wrap;html=1;fontSize=16;" parent="1" vertex="1">
          <mxGeometry x="15" y="125" width="115" height="20" as="geometry" />
        </mxCell>
        <mxCell id="oyS0qSdWrs01dl2GKNHj-179" value="&lt;b&gt;NOTE: &lt;/b&gt;probably will not do file input." style="text;html=1;strokeColor=none;fillColor=none;align=center;verticalAlign=middle;whiteSpace=wrap;rounded=0;fontSize=16;" parent="1" vertex="1">
          <mxGeometry x="240" y="-40" width="280" height="30" as="geometry" />
        </mxCell>
        <mxCell id="oyS0qSdWrs01dl2GKNHj-182" style="edgeStyle=orthogonalEdgeStyle;rounded=0;orthogonalLoop=1;jettySize=auto;html=1;entryX=0;entryY=0.5;entryDx=0;entryDy=0;fontSize=12;startSize=8;endSize=8;endArrow=none;endFill=0;" parent="1" source="oyS0qSdWrs01dl2GKNHj-180" target="oyS0qSdWrs01dl2GKNHj-28" edge="1">
          <mxGeometry relative="1" as="geometry">
            <Array as="points">
              <mxPoint x="73" y="253" />
            </Array>
          </mxGeometry>
        </mxCell>
        <mxCell id="oyS0qSdWrs01dl2GKNHj-185" style="edgeStyle=none;curved=1;rounded=0;orthogonalLoop=1;jettySize=auto;html=1;fontSize=12;startSize=8;endSize=8;" parent="1" source="oyS0qSdWrs01dl2GKNHj-180" edge="1">
          <mxGeometry relative="1" as="geometry">
            <mxPoint x="72.5" y="210.00000000000023" as="targetPoint" />
          </mxGeometry>
        </mxCell>
        <mxCell id="oyS0qSdWrs01dl2GKNHj-186" style="edgeStyle=none;curved=1;rounded=0;orthogonalLoop=1;jettySize=auto;html=1;fontSize=12;startSize=8;endSize=8;" parent="1" source="oyS0qSdWrs01dl2GKNHj-180" edge="1">
          <mxGeometry relative="1" as="geometry">
            <mxPoint x="72.5" y="230.00000000000023" as="targetPoint" />
          </mxGeometry>
        </mxCell>
        <mxCell id="oyS0qSdWrs01dl2GKNHj-180" value="&lt;span style=&quot;font-size: 11px;&quot;&gt;SavePreferences()&lt;/span&gt;" style="rounded=1;whiteSpace=wrap;html=1;fontSize=16;" parent="1" vertex="1">
          <mxGeometry x="15" y="150" width="115" height="20" as="geometry" />
        </mxCell>
        <mxCell id="oyS0qSdWrs01dl2GKNHj-192" value="&lt;b&gt;NOTE: &lt;/b&gt;bold refers to save-able preferences." style="text;html=1;strokeColor=none;fillColor=none;align=center;verticalAlign=middle;whiteSpace=wrap;rounded=0;fontSize=16;" parent="1" vertex="1">
          <mxGeometry x="155" y="350" width="330" height="30" as="geometry" />
        </mxCell>
      </root>
    </mxGraphModel>
  </diagram>
</mxfile>
